<?xml version="1.0" encoding="iso-8859-1"?>
<!-- Generator: Adobe Illustrator 21.0.0, SVG Export Plug-In . SVG Version: 6.00 Build 0)  -->
<svg xmlns="http://www.w3.org/2000/svg" xmlns:xlink="http://www.w3.org/1999/xlink" version="1.1" id="Capa_1" x="0px" y="0px" viewBox="0 0 511.906 511.906" style="enable-background:new 0 0 511.906 511.906;" xml:space="preserve" width="512" height="512">
<g>
	<path d="M409.953,54.003h-79V15c0-8.284-6.716-15-15-15s-15,6.716-15,15v99.003h-90V15c0-8.284-6.716-15-15-15s-15,6.716-15,15   v39.003h-79c-8.284,0-15,6.716-15,15v120c0,8.284,6.716,15,15,15h79v72c0,8.284,6.716,15,15,15h120c8.284,0,15-6.716,15-15v-72h79   c8.284,0,15-6.716,15-15v-120C424.953,60.719,418.237,54.003,409.953,54.003z M300.953,261.003h-90v-57h90V261.003z    M394.953,174.003h-278v-90h64v30.001h-17.839c-8.284,0-15,6.716-15,15s6.716,15,15,15h185.678c8.284,0,15-6.716,15-15   s-6.716-15-15-15h-17.839V84.003h64V174.003z"/>
	<path d="M363.953,351.398h-216c-24.813,0-45,20.187-45,45v100.508c0,8.284,6.716,15,15,15s15-6.716,15-15v-94.138l44.728,45.183   c2.817,2.846,6.656,4.447,10.66,4.447h136.713c4.062,0,7.95-1.647,10.775-4.565l43.124-44.533v93.606c0,8.284,6.716,15,15,15   s15-6.716,15-15V396.398C408.953,371.585,388.767,351.398,363.953,351.398z M318.699,422.398H194.599l-40.588-41h204.391   L318.699,422.398z"/>
</g>















</svg>
