<?xml version="1.0" encoding="utf-8"?>
<!-- Generator: Adobe Illustrator 21.0.2, SVG Export Plug-In . SVG Version: 6.00 Build 0)  -->
<svg version="1.0" id="Capa_1" xmlns="http://www.w3.org/2000/svg" xmlns:xlink="http://www.w3.org/1999/xlink" x="0px" y="0px"
	 viewBox="0 0 48 48" style="enable-background:new 0 0 48 48;" xml:space="preserve">
<style type="text/css">
	.st0{fill:#0023C4;}
	.st1{fill:none;}
	.st2{fill:#FF5CF4;}
</style>
<path class="st0" d="M32.5,31.5h-17c-1.9,0-3.5,1.6-3.5,3.5v7.9c0,0.7,0.5,1.2,1.2,1.2s1.2-0.5,1.2-1.2v-7.4l3.5,3.5
	c0.2,0.2,0.5,0.4,0.8,0.4h10.8c0.3,0,0.6-0.1,0.8-0.4l3.4-3.5v7.3c0,0.7,0.5,1.2,1.2,1.2s1.2-0.5,1.2-1.2v-7.9
	C36.1,33.1,34.5,31.5,32.5,31.5z M29,37.1h-9.7l-3.2-3.2h16.1L29,37.1z"/>
<path class="st1" d="M30,12.8h1.4c0.7,0,1.2,0.5,1.2,1.2s-0.5,1.2-1.2,1.2H16.7c-0.7,0-1.2-0.5-1.2-1.2s0.5-1.2,1.2-1.2h1.4v-2.3H13
	v7.1h21.9v-7.1h-5.1L30,12.8L30,12.8z"/>
<rect x="20.5" y="19.9" class="st1" width="7.1" height="4.5"/>
<path class="st2" d="M27.6,24.4h-7.1v-4.5h-2.3v5.7c0,0.7,0.5,1.2,1.2,1.2h9.4c0.7,0,1.2-0.5,1.2-1.2v-5.7h-2.3L27.6,24.4L27.6,24.4
	z"/>
<path class="st0" d="M36.2,8.1H30v-3c0-0.7-0.5-1.2-1.2-1.2s-1.2,0.5-1.2,1.2v7.8h-7V5.1c0-0.7-0.5-1.2-1.2-1.2s-1.2,0.5-1.2,1.2
	v3.1H12c-0.7,0-1.2,0.5-1.2,1.2v9.4c0,0.7,0.5,1.2,1.2,1.2h6.2h2.3h7.1h2.3h6.2c0.7,0,1.2-0.5,1.2-1.2V9.3
	C37.3,8.6,36.8,8.1,36.2,8.1z M35,17.6H13.1v-7.1h5.1v2.3h-1.4c-0.7,0-1.2,0.5-1.2,1.2s0.5,1.2,1.2,1.2h14.6c0.7,0,1.2-0.5,1.2-1.2
	s-0.5-1.2-1.2-1.2H30v-2.3h5.1L35,17.6L35,17.6z"/>
</svg>
