<svg id="Layer_1" enable-background="new 0 0 512.037 512.037" height="512" viewBox="0 0 512.037 512.037" width="512" xmlns="http://www.w3.org/2000/svg"><g><path d="m57.233 376.843c5.589-5.436 7.312-13.628 4.67-20.963-8.738-24.259-5.83-52.007 9.536-74.423l20.133-30.949c14.262-20.806 43.931-23.51 61.719-5.624l-.255 26.135c-7 0-13.604 4.128-19 12l-23.461 35.651c-15.366 22.416-14.039 46.849-40.539 73.349zm286.505-312.695.046-.046c6.732-6.71 15.124-10.731 23.85-12.083-1.56-.887-6.033-4.462-7.357-5.802l-7.426-7.521c-16.847-16.873-44.18-16.906-61.068-.072l-.046.046c-16.911 16.857-16.938 44.24-.057 61.13l38.507 38.807 13.493-13.327c-16.881-16.891-16.854-44.274.058-61.132z" fill="#cee1f2"/><path d="m489.547 148.151c11.949 11.967 18.51 27.853 18.49 44.745-.021 16.892-6.621 32.762-18.585 44.686-12.309 12.267-28.462 18.399-44.614 18.399-16.195 0-32.387-6.164-44.703-18.488l-122.652-123.605c-11.894-11.901-18.462-27.789-18.446-44.685s6.616-32.771 18.582-44.7c24.706-24.627 64.784-24.581 89.386.06.027.027.053.053.08.08l7.426 7.521 26.41-26.314c7.825-7.797 20.487-7.773 28.284.052 7.796 7.825 7.773 20.488-.052 28.284l-26.41 26.314c-7.553 7.525-17.573 11.664-28.228 11.665-.057 0-.112 0-.169 0-10.719-.044-20.77-4.269-28.3-11.897l-7.377-7.472c-9.034-9.015-23.722-9.021-32.765-.008-4.439 4.424-6.861 10.251-6.867 16.454-.006 6.202 2.405 12.034 6.79 16.421l122.651 123.605c8.979 8.985 23.688 9 32.737-.018 4.392-4.377 6.814-10.203 6.822-16.403s-2.401-12.032-6.782-16.42l-45.786-45.769c-7.812-7.809-7.814-20.473-.005-28.285s20.472-7.813 28.284-.005l8.159 8.156 25.811-26.469c7.711-7.909 20.374-8.068 28.282-.356 7.908 7.711 8.068 20.374.356 28.282l-26.157 26.824zm-322.075 82.63c-12.692-12.763-30.257-19.151-48.177-17.512-17.925 1.633-34.042 11.084-44.22 25.931-.091.133-20.277 31.16-20.277 31.16-18.425 27.022-22.805 61.506-11.712 92.298.005.012.008.024.012.035l-37.042 36.026c-7.918 7.701-8.095 20.362-.393 28.281 7.7 7.917 20.363 8.095 28.282.393l37.233-36.212c11.11-10.807 14.856-27.323 9.542-42.079-6.773-18.804-4.076-39.864 7.216-56.337.091-.133 20.249-31.116 20.249-31.116 4.674-6.687 11.23-8.225 14.74-8.544 3.54-.32 10.348.012 16.136 5.834l114.025 115.46c4.287 4.31 6.396 10.25 5.787 16.299-.606 6.016-3.826 11.392-8.84 14.764 0 0-30.668 19.911-30.733 19.954-24.633 16.403-57.683 13.101-78.583-7.856-.206-.206-.416-.407-.63-.604l-10.519-9.663c-8.135-7.474-20.787-6.937-28.259 1.198-7.473 8.134-6.937 20.786 1.198 28.259 0 0 11.248 10.393 11.77 10.89l-31.117 29.976c-7.955 7.663-8.19 20.324-.526 28.279 3.926 4.074 9.162 6.123 14.405 6.123 4.994 0 9.994-1.859 13.874-5.598l38.387-36.985c11.42 4.205 23.488 6.344 35.596 6.344 19.584-.001 39.275-5.584 56.472-17.004 0 0 30.688-19.924 30.752-19.967 15.061-10.027 24.737-26.104 26.55-44.105 1.812-18.002-4.465-35.685-17.174-48.463z" fill="#0023c4"/><path d="m293.459 289.019c-.069 0-.138 0-.208-.001-13.385-.054-25.934-5.322-35.345-14.836l-18.379-18.406c-.028-.028-.056-.057-.084-.085-19.259-19.52-19.131-51.154.285-70.518.073-.073.147-.146.222-.218l26.185-25.315c7.942-7.677 20.603-7.464 28.28.478 7.678 7.941 7.464 20.603-.478 28.28l-26.045 25.179c-3.791 3.87-3.799 10.112-.005 13.99l18.362 18.389c.028.028.056.057.084.085 2.541 2.576 5.525 2.971 7.078 2.977 1.532.01 4.541-.364 7.102-2.92l26.422-26.265c7.833-7.787 20.497-7.75 28.284.085 7.787 7.833 7.75 20.497-.084 28.284l-26.398 26.242c-9.419 9.395-21.949 14.575-35.278 14.575z" fill="#ff5cf4"/></g></svg>