<?xml version="1.0" encoding="utf-8"?>
<!-- Generator: Adobe Illustrator 21.0.2, SVG Export Plug-In . SVG Version: 6.00 Build 0)  -->
<svg version="1.0" id="Capa_1" xmlns="http://www.w3.org/2000/svg" xmlns:xlink="http://www.w3.org/1999/xlink" x="0px" y="0px"
	 viewBox="0 0 325 92.5" style="enable-background:new 0 0 325 92.5;" xml:space="preserve">
<style type="text/css">
	.st0{fill:#0023C4;}
	.st1{fill:none;}
	.st2{fill:#FF5CF4;}
	.st3{fill:#0023C4;stroke:#0023C4;stroke-width:0.9;stroke-miterlimit:10;}
	.st4{fill:#FF5CF4;stroke:#FF5CF4;stroke-width:0.9;stroke-miterlimit:10;}
</style>
<path class="st0" d="M50,62.4H12.9c-4.3,0-7.7,3.5-7.7,7.7v17.3c0,1.4,1.2,2.6,2.6,2.6s2.6-1.2,2.6-2.6V71.3l7.7,7.8
	c0.5,0.5,1.1,0.8,1.8,0.8h23.5c0.7,0,1.4-0.3,1.9-0.8l7.4-7.6v16.1c0,1.4,1.2,2.6,2.6,2.6s2.6-1.2,2.6-2.6V70.2
	C57.8,65.9,54.3,62.4,50,62.4z M42.3,74.6H21l-7-7h35.1L42.3,74.6z"/>
<path class="st1" d="M44.4,21.7h3.1c1.4,0,2.6,1.2,2.6,2.6s-1.2,2.6-2.6,2.6H15.5c-1.4,0-2.6-1.2-2.6-2.6s1.2-2.6,2.6-2.6h3.1v-5.2
	h-11V32h47.7V16.5h-11V21.7z"/>
<rect x="23.8" y="37.1" class="st1" width="15.5" height="9.8"/>
<path class="st2" d="M39.2,46.9H23.8v-9.8h-5.2v12.4c0,1.4,1.2,2.6,2.6,2.6h20.6c1.4,0,2.6-1.2,2.6-2.6V37.1h-5.2V46.9z"/>
<path class="st0" d="M57.9,11.4H44.4V4.7c0-1.4-1.2-2.6-2.6-2.6c-1.4,0-2.6,1.2-2.6,2.6v17H23.8v-17c0-1.4-1.2-2.6-2.6-2.6
	c-1.4,0-2.6,1.2-2.6,2.6v6.7H5c-1.4,0-2.6,1.2-2.6,2.6v20.6c0,1.4,1.2,2.6,2.6,2.6h13.6h5.2h15.5h5.2h13.6c1.4,0,2.6-1.2,2.6-2.6
	V13.9C60.5,12.5,59.4,11.4,57.9,11.4z M55.4,32H7.6V16.5h11v5.2h-3.1c-1.4,0-2.6,1.2-2.6,2.6s1.2,2.6,2.6,2.6h31.9
	c1.4,0,2.6-1.2,2.6-2.6s-1.2-2.6-2.6-2.6h-3.1v-5.2h11V32z"/>
<path class="st3" d="M88,67.4h-4.3V32.1H70.4v35.3h-4.3V27.8H88V67.4z"/>
<path class="st3" d="M113.3,54.1c0,4.7-0.7,8.1-2.2,10.4c-1.4,2.3-3.5,3.4-6.1,3.4c-2.5,0-4.5-1.1-5.9-3.3v14.1H95V38h3.7l0.2,3.3
	c1.4-2.5,3.4-3.8,6-3.8c2.8,0,4.8,1.1,6.2,3.4c1.4,2.2,2.1,5.6,2.1,10.1V54.1z M109.1,51.4c0-3.3-0.4-5.7-1.3-7.3
	c-0.9-1.6-2.3-2.3-4.2-2.3c-2,0-3.5,1.2-4.5,3.5v15.3c1,2.2,2.5,3.4,4.6,3.4c1.9,0,3.2-0.8,4.1-2.3c0.9-1.6,1.3-4,1.3-7.2V51.4z"/>
<path class="st3" d="M132.2,38h4.1v29.4h-4.1V45.9l-9.2,21.4H119V38h4.1v21.5L132.2,38z"/>
<path class="st3" d="M151.7,63.8c1.4,0,2.5-0.5,3.3-1.5c0.8-1,1.3-2.4,1.4-4.2h3.9c-0.1,2.8-1,5.2-2.6,7c-1.6,1.9-3.6,2.8-6,2.8
	c-3.1,0-5.5-1.1-7.2-3.4c-1.6-2.3-2.5-5.7-2.5-10.2V51c0-4.4,0.8-7.8,2.5-10.1c1.6-2.3,4-3.5,7.1-3.5c2.6,0,4.6,1,6.2,2.9
	c1.5,1.9,2.3,4.5,2.4,7.8h-3.9c-0.1-2.2-0.5-3.8-1.3-4.9c-0.8-1.1-1.9-1.6-3.3-1.6c-1.8,0-3.2,0.7-4.1,2.1c-0.9,1.4-1.3,3.7-1.4,6.9
	v3.7c0,3.5,0.4,5.9,1.3,7.3C148.4,63.1,149.8,63.8,151.7,63.8z"/>
<path class="st3" d="M181,42.1h-6.9v25.3H170V42.1h-6.8V38H181V42.1z"/>
<path class="st3" d="M192.5,67.9c-3.1,0-5.6-1.1-7.2-3.3c-1.7-2.2-2.5-5.4-2.6-9.6v-3.6c0-4.4,0.8-7.8,2.5-10.3
	c1.6-2.5,3.9-3.7,6.9-3.7c3,0,5.2,1.1,6.6,3.3c1.5,2.2,2.2,5.6,2.2,10.2v3.2h-14.1v0.7c0,3.2,0.5,5.4,1.5,6.9c1,1.4,2.5,2.1,4.4,2.1
	c1.2,0,2.3-0.3,3.2-0.8c0.9-0.5,1.8-1.4,2.6-2.5l2.1,3C199,66.5,196.2,67.9,192.5,67.9z M192.1,41.6c-1.7,0-3,0.7-3.8,2.1
	c-0.8,1.4-1.3,3.5-1.4,6.4h10v-0.7c-0.1-2.8-0.5-4.8-1.3-6C194.8,42.2,193.6,41.6,192.1,41.6z"/>
<path class="st3" d="M219.8,42.1h-9.4v25.2h-4.2V38h13.6V42.1z"/>
<path class="st3" d="M241.4,67.4h-4.1V54.8h-9.1v12.6H224V38h4.2v12.7h9.1V38h4.1V67.4z"/>
<path class="st3" d="M261.7,38h4.1v29.4h-4.1V45.9l-9.2,21.4h-4.1V38h4.1v21.5L261.7,38z"/>
<path class="st3" d="M281.2,63.8c1.4,0,2.5-0.5,3.3-1.5c0.8-1,1.3-2.4,1.4-4.2h3.9c-0.1,2.8-1,5.2-2.6,7c-1.6,1.9-3.6,2.8-6,2.8
	c-3.1,0-5.5-1.1-7.2-3.4c-1.6-2.3-2.5-5.7-2.5-10.2V51c0-4.4,0.8-7.8,2.5-10.1c1.6-2.3,4-3.5,7.1-3.5c2.6,0,4.6,1,6.2,2.9
	c1.5,1.9,2.3,4.5,2.4,7.8h-3.9c-0.1-2.2-0.5-3.8-1.3-4.9c-0.8-1.1-1.9-1.6-3.3-1.6c-1.8,0-3.2,0.7-4.1,2.1c-0.9,1.4-1.3,3.7-1.4,6.9
	v3.7c0,3.5,0.4,5.9,1.3,7.3C277.9,63.1,279.3,63.8,281.2,63.8z"/>
<path class="st3" d="M299,48.1h5.2c2.4,0,4.3,0.9,5.8,2.6c1.4,1.7,2.1,4,2.1,7s-0.7,5.3-2.2,7c-1.4,1.8-3.4,2.7-5.7,2.7h-9.3V38h4.1
	V48.1z M299,52.2v11.1h5.1c1.2,0,2.2-0.5,2.8-1.4c0.7-1,1-2.3,1-4c0-1.7-0.3-3-1-4c-0.7-1-1.6-1.6-2.8-1.6H299z"/>
<path class="st4" d="M320.3,61.9c0.8,0,1.4,0.3,1.8,0.8c0.4,0.6,0.6,1.2,0.6,2.1c0,0.8-0.2,1.5-0.6,2c-0.4,0.5-1,0.8-1.8,0.8
	c-0.8,0-1.4-0.3-1.8-0.8c-0.4-0.5-0.6-1.2-0.6-2c0-0.8,0.2-1.5,0.6-2.1C318.9,62.2,319.5,61.9,320.3,61.9z M322,56.2h-3.7L318,27.8
	h4.3L322,56.2z"/>
</svg>
