<?xml version="1.0" encoding="utf-8"?>
<!-- Generator: Adobe Illustrator 21.0.2, SVG Export Plug-In . SVG Version: 6.00 Build 0)  -->
<svg version="1.1" id="Capa_1" xmlns="http://www.w3.org/2000/svg" xmlns:xlink="http://www.w3.org/1999/xlink" x="0px" y="0px"
	 viewBox="0 0 150 150" style="enable-background:new 0 0 150 150;" xml:space="preserve">
<style type="text/css">
	.st0{fill:#0023C4;}
	.st1{fill:none;}
	.st2{fill:#FF5CF4;}
</style>
<path class="st0" d="M104.2,100.9H45.4c-6.6,0-12.1,5.5-12.1,12.1v27.3c0,2.4,1.7,4.1,4.1,4.1s4.1-1.7,4.1-4.1v-25.6l12.1,12.1
	c0.7,0.7,1.7,1.4,2.8,1.4h37.3c1,0,2.1-0.3,2.8-1.4l11.8-12.1V140c0,2.4,1.7,4.1,4.1,4.1s4.1-1.7,4.1-4.1v-27.3
	C116.7,106.5,111.1,100.9,104.2,100.9z M92.1,120.3H58.6l-11.1-11.1h55.7L92.1,120.3z"/>
<path class="st1" d="M95.6,36.3h4.8c2.4,0,4.1,1.7,4.1,4.1c0,2.4-1.7,4.1-4.1,4.1H49.6c-2.4,0-4.1-1.7-4.1-4.1
	c0-2.4,1.7-4.1,4.1-4.1h4.8v-8H36.8v24.5h75.7V28.3H94.9L95.6,36.3L95.6,36.3z"/>
<rect x="62.7" y="60.8" class="st1" width="24.5" height="15.6"/>
<path class="st2" d="M87.3,76.4H62.7V60.8h-8v19.7c0,2.4,1.7,4.1,4.1,4.1h32.5c2.4,0,4.1-1.7,4.1-4.1V60.8h-8L87.3,76.4L87.3,76.4z"
	/>
<path class="st0" d="M117,20H95.6V9.6c0-2.4-1.7-4.1-4.1-4.1s-4.1,1.7-4.1,4.1v27H63.1v-27c0-2.4-1.7-4.1-4.1-4.1
	c-2.4,0-4.1,1.7-4.1,4.1v10.7H33.3c-2.4,0-4.1,1.7-4.1,4.1V57c0,2.4,1.7,4.1,4.1,4.1h21.4h8h24.5h8h21.4c2.4,0,4.1-1.7,4.1-4.1V24.2
	C120.8,21.8,119.1,20,117,20z M112.9,52.9H37.1V28.3h17.6v8h-4.8c-2.4,0-4.1,1.7-4.1,4.1c0,2.4,1.7,4.1,4.1,4.1h50.5
	c2.4,0,4.1-1.7,4.1-4.1c0-2.4-1.7-4.1-4.1-4.1h-4.8v-8h17.6L112.9,52.9L112.9,52.9z"/>
</svg>
