<?xml version="1.0" encoding="utf-8"?>
<!-- Generator: Adobe Illustrator 21.0.2, SVG Export Plug-In . SVG Version: 6.00 Build 0)  -->
<svg version="1.0" id="Layer_1" xmlns="http://www.w3.org/2000/svg" xmlns:xlink="http://www.w3.org/1999/xlink" x="0px" y="0px"
	 viewBox="0 0 178.1 58.5" style="enable-background:new 0 0 178.1 58.5;" xml:space="preserve">
<style type="text/css">
	.st0{display:none;fill:#0023C4;}
	.st1{fill:#0023C4;}
	.st2{fill:#FF5CF4;}
	.st3{display:none;}
	.st4{display:inline;fill:#0023C4;}
</style>
<path class="st0" d="M14.4,0.9v-57.6h40.8v10.8H26.7v12.2h27.9v10.8H26.7V0.9H14.4z"/>
<path class="st1" d="M122.3,51.2V14.6l-8.4,8.5l-6.1-6.4l15.9-16h9.4v50.4L122.3,51.2L122.3,51.2z"/>
<path class="st1" d="M140.1,51.2v-8.4c20.6-15.3,26.7-20.5,26.7-26.7c0-4.4-4-6.6-8.2-6.6c-5.7,0-10.1,2.3-13.5,5.8L139,8.2
	c4.9-5.7,12.4-8.2,19.4-8.2c10.7,0,19.3,6,19.3,16.1c0,8.6-7.1,16.1-20.2,25.6h20.6v9.5H140.1z"/>
<ellipse class="st2" cx="11.7" cy="51.2" rx="11.7" ry="7.3"/>
<path class="st1" d="M89.4,0.8H75.9L56.4,51.2h12.3l3.2-8.5h21.6l3.1,8.5h12.3L89.4,0.8z M82.6,35.3c-6.4,0-11.7-3.3-11.7-7.3
	s5.2-7.3,11.7-7.3S94.3,24,94.3,28S89,35.3,82.6,35.3z"/>
<path class="st0" d="M82.8,0.9v-4.3C79.9,0,75,2,69.5,2C62.9,2,55-2.5,55-11.9c0-9.8,7.9-13.5,14.5-13.5c5.5,0,10.5,1.8,13.2,5.1
	v-5.6c0-4.2-3.6-7-9.2-7c-4.5,0-8.6,1.6-12.2,4.9l-4.1-7.3c5.1-4.5,11.7-6.6,18.2-6.6C85-41.8,93.7-38,93.7-26V1H82.8V0.9z
	 M82.8-9.1v-5.2c-1.8-2.4-5.3-3.6-8.8-3.6c-4.3,0-7.9,2.2-7.9,6.3c0,3.9,3.5,6.1,7.9,6.1C77.5-5.5,81-6.7,82.8-9.1z"/>
<g class="st3">
	<path class="st4" d="M55.8,58.4v-9.6c23.6-17.5,30.5-23.4,30.5-30.5c0-5-4.6-7.5-9.3-7.5c-6.6,0-11.6,2.6-15.5,6.7l-7-8.1
		C60.1,2.9,68.7,0,76.7,0c12.3,0,22,6.9,22,18.4c0,9.8-8.1,18.4-23.1,29.3h23.5v10.8L55.8,58.4L55.8,58.4z"/>
</g>
<rect x="23.3" y="0.8" class="st2" width="10.7" height="50.4"/>
<polyline class="st1" points="34,10.2 59,10.2 59,0.8 34,0.8 "/>
<polyline class="st1" points="34,30.3 58.5,30.3 58.5,20.9 34,20.9 "/>
<rect x="26.7" y="-11.4" class="st0" width="12.3" height="11.3"/>
</svg>
